<?xml version="1.0" standalone="no"?>
<!DOCTYPE svg PUBLIC "-//W3C//DTD SVG 20010904//EN"
 "http://www.w3.org/TR/2001/REC-SVG-20010904/DTD/svg10.dtd">
<svg version="1.0" xmlns="http://www.w3.org/2000/svg"
 width="1280.000000pt" height="863.000000pt" viewBox="0 0 1280.000000 863.000000"
 preserveAspectRatio="xMidYMid meet">
<metadata>
Created by potrace 1.15, written by Peter Selinger 2001-2017
</metadata>
<g transform="translate(0.000000,863.000000) scale(0.100000,-0.100000)"
fill="#000000" stroke="none">
<path d="M0 8395 c0 -20 6 -25 38 -31 20 -4 111 -23 202 -43 l165 -37 51 -219
c123 -528 272 -1168 384 -1649 66 -286 122 -521 124 -523 2 -3 183 208 456
533 63 75 533 635 625 745 50 59 181 215 292 346 l202 240 73 -14 c192 -37
179 -32 194 -68 7 -18 189 -529 403 -1136 214 -607 393 -1112 396 -1122 6 -14
174 232 691 1007 l684 1026 38 0 c20 0 87 -3 148 -6 l111 -7 549 -1098 c302
-605 551 -1099 554 -1099 3 0 250 491 550 1091 300 600 549 1093 555 1097 5 3
63 9 128 12 l118 5 641 -1033 c352 -568 643 -1030 647 -1027 3 4 207 520 453
1148 l446 1142 54 12 c29 6 88 18 131 26 l78 15 472 -567 c260 -311 611 -734
782 -940 l310 -374 72 299 c119 489 149 614 223 929 39 165 107 449 151 630
45 182 91 377 104 433 13 57 25 105 27 107 5 5 166 45 323 79 144 31 150 34
153 58 l3 26 -88 -19 c-48 -11 -140 -31 -203 -45 -63 -13 -129 -29 -146 -34
-17 -6 -145 -39 -285 -74 -140 -35 -416 -107 -614 -159 -654 -174 -827 -213
-1690 -378 -192 -37 -861 -122 -1165 -148 -343 -30 -466 -37 -1120 -69 -266
-12 -2020 -8 -2265 6 -121 7 -301 17 -400 23 -855 48 -1653 158 -2555 355
-300 65 -927 221 -1225 304 -192 54 -692 179 -775 195 -19 3 -85 17 -146 31
-61 13 -114 24 -118 24 -3 0 -6 -11 -6 -25z"/>
<path d="M0 5527 c0 -22 9 -26 178 -62 169 -36 600 -143 967 -240 814 -215
1416 -351 1920 -434 291 -48 607 -94 730 -106 33 -3 116 -12 185 -20 649 -74
1257 -104 2235 -111 1793 -12 3043 98 4320 383 61 13 142 31 180 39 103 22
684 167 880 219 518 138 1150 295 1190 295 3 0 5 11 5 25 0 14 -2 25 -5 25 -3
0 -87 -18 -188 -41 -222 -50 -459 -109 -1012 -256 -395 -104 -921 -230 -1265
-302 -486 -102 -1179 -206 -1635 -245 -33 -3 -107 -10 -165 -15 -267 -25 -666
-49 -1005 -61 -990 -33 -2222 -16 -2930 40 -1230 98 -2033 242 -3420 610 -310
83 -814 209 -910 230 -55 11 -129 27 -165 35 -86 19 -90 19 -90 -8z"/>
<path d="M0 3505 c0 -23 4 -25 48 -26 145 -4 12729 -4 12740 -1 6 2 12 15 12
28 l0 24 -6400 0 -6400 0 0 -25z"/>
<path d="M891 1298 c309 -618 563 -1125 565 -1127 3 -3 1124 2234 1124 2244 0
3 -506 5 -1125 5 l-1125 0 561 -1122z"/>
<path d="M2830 2415 c0 -10 1120 -2245 1125 -2245 5 0 1125 2235 1125 2245 0
3 -506 5 -1125 5 -619 0 -1125 -2 -1125 -5z"/>
<path d="M5390 2415 c0 -11 1115 -2235 1121 -2235 3 0 259 504 567 1120 l562
1120 -1125 0 c-619 0 -1125 -2 -1125 -5z"/>
<path d="M7930 2410 c0 -6 253 -515 561 -1132 l562 -1123 563 1125 c309 619
563 1128 563 1133 1 4 -505 7 -1124 7 -745 0 -1125 -3 -1125 -10z"/>
<path d="M10380 2405 c0 -10 1121 -2247 1124 -2244 2 2 256 509 565 1127 l561
1122 -1125 0 c-619 0 -1125 -2 -1125 -5z"/>
</g>
</svg>
